<svg width="49" height="48" viewBox="0 0 49 48" fill="none" xmlns="http://www.w3.org/2000/svg">
<path d="M42.68 13.96C40.98 12.08 38.14 11.14 34.02 11.14H33.54V11.06C33.54 7.70004 33.54 3.54004 26.02 3.54004H22.98C15.46 3.54004 15.46 7.72004 15.46 11.06V11.16H14.98C10.84 11.16 8.02001 12.1 6.32001 13.98C4.34001 16.18 4.40001 19.14 4.60001 21.16L4.62001 21.3L4.79747 23.1633C4.81173 23.3131 4.89214 23.4481 5.01776 23.5309C5.43731 23.8074 6.42363 24.4509 6.98001 24.76C7.26001 24.94 7.56001 25.1 7.86001 25.26C11.28 27.14 15.04 28.4 18.86 29.02C19.04 30.9 19.86 33.1 24.24 33.1C28.62 33.1 29.48 30.92 29.62 28.98C33.7 28.32 37.64 26.9 41.2 24.82C41.32 24.76 41.4 24.7 41.5 24.64C42.3563 24.156 43.2473 23.5508 44.0438 22.9694C44.1564 22.8872 44.2288 22.7613 44.2442 22.6228L44.3 22.12L44.4 21.18C44.42 21.06 44.42 20.96 44.44 20.82C44.6 18.8 44.56 16.04 42.68 13.96ZM26.68 27.66C26.68 29.78 26.68 30.1 24.22 30.1C21.76 30.1 21.76 29.72 21.76 27.68V25.16H26.68V27.66ZM18.32 11.14V11.06C18.32 7.66004 18.32 6.40004 22.98 6.40004H26.02C30.68 6.40004 30.68 7.68004 30.68 11.06V11.16H18.32V11.14Z" fill="url(#paint0_linear_298_6708)"/>
<path d="M43.0567 27.0797C43.4091 26.909 43.8143 27.1893 43.7789 27.5793L42.98 36.3801C42.56 40.3801 40.92 44.4601 32.12 44.4601H16.88C8.07999 44.4601 6.43999 40.3801 6.01999 36.4001L5.25928 28.0322C5.22424 27.6468 5.6195 27.3664 5.97108 27.5282C7.96018 28.4439 13.2176 30.8006 16.1166 31.4998C16.2817 31.5396 16.415 31.6567 16.4809 31.8133C17.6406 34.5702 20.3184 36.0401 24.24 36.0401C28.1227 36.0401 30.8371 34.5137 31.999 31.7535C32.0649 31.5968 32.198 31.4798 32.3633 31.4399C35.4335 30.6991 40.9895 28.0811 43.0567 27.0797Z" fill="url(#paint1_linear_298_6708)"/>
<defs>
<linearGradient id="paint0_linear_298_6708" x1="24.5025" y1="3.54004" x2="24.5025" y2="33.1" gradientUnits="userSpaceOnUse">
<stop stop-color="#88F5C1"/>
<stop offset="1" stop-color="#32D686"/>
</linearGradient>
<linearGradient id="paint1_linear_298_6708" x1="24.52" y1="26.6862" x2="24.52" y2="44.4601" gradientUnits="userSpaceOnUse">
<stop stop-color="#88F5C1"/>
<stop offset="1" stop-color="#32D686"/>
</linearGradient>
</defs>
</svg>
