<svg width="40" height="41" viewBox="0 0 40 41" fill="none" xmlns="http://www.w3.org/2000/svg">
<path d="M36.951 14.7093C36.934 14.2932 36.8936 13.8784 36.8298 13.4669C36.7555 13.0313 36.6563 12.6003 36.5328 12.176C35.9173 10.3035 34.8806 8.59718 33.5025 7.18808L33.3813 7.079V7.04262C32.0134 5.7227 30.3517 4.74643 28.5328 4.19414C28.1104 4.07133 27.6814 3.97219 27.248 3.89718C26.8469 3.82997 26.4421 3.78746 26.0358 3.7699C25.2863 3.74107 24.5362 3.81241 23.8055 3.98203C23.1804 4.12486 22.5813 4.36409 22.0298 4.69112C21.554 4.96273 21.1311 5.3179 20.7813 5.7396C20.3421 6.26112 20.0456 6.88754 19.9207 7.55778V9.61232C20.2135 8.84009 20.7073 8.16008 21.351 7.64263C21.7193 7.33532 22.1269 7.07851 22.5631 6.87899C23.055 6.66305 23.5722 6.51032 24.1025 6.42445C24.704 6.33222 25.3144 6.31187 25.9207 6.36384C26.5864 6.42878 27.2429 6.567 27.8783 6.77597C29.2922 7.26036 30.5772 8.06038 31.6358 9.11536C32.6919 10.1755 33.4921 11.4628 33.9752 12.879C34.1852 13.5141 34.3235 14.1707 34.3874 14.8366C34.4398 15.4429 34.4194 16.0533 34.3267 16.6547C34.2446 17.1859 34.0917 17.7036 33.8722 18.1941C33.6761 18.6308 33.4212 19.0387 33.1146 19.4063C32.5782 20.0439 31.8816 20.5271 31.0964 20.8063H33.151C33.8212 20.6813 34.4476 20.3848 34.9692 19.9457C35.3869 19.6023 35.7382 19.1853 36.0055 18.7153C36.334 18.1624 36.5733 17.561 36.7146 16.9335C36.8951 16.2065 36.9746 15.458 36.951 14.7093Z" fill="url(#paint0_linear_349_408)"/>
<path d="M32.7883 18.0854C33.0598 17.6563 33.2642 17.1883 33.3944 16.6975C33.5154 16.1587 33.5724 15.6074 33.5641 15.0551C33.5324 14.4395 33.4307 13.8295 33.261 13.2369C33.0668 12.5841 32.7898 11.9588 32.4368 11.3763C32.0477 10.7602 31.5991 10.1837 31.0974 9.65511L31.0126 9.58238L30.8732 9.43086C30.4036 8.99993 29.8896 8.62003 29.3398 8.29753C28.7694 7.95014 28.1589 7.67336 27.5216 7.47329C26.9291 7.3036 26.3191 7.20194 25.7035 7.17026C25.1494 7.16497 24.5964 7.2219 24.055 7.33995C23.5656 7.47406 23.0981 7.67819 22.6671 7.94602C22.2894 8.18466 21.957 8.48835 21.6853 8.84298C21.1998 9.49425 20.9173 10.2743 20.8732 11.0854C20.8518 11.4898 20.8639 11.8952 20.9095 12.2975C21.135 11.6689 21.5167 11.1079 22.0186 10.6672C22.5955 10.195 23.2881 9.88535 24.0247 9.77025C24.2247 9.73995 24.4307 9.71571 24.6307 9.70359C24.8447 9.69173 25.0592 9.69173 25.2732 9.70359C25.4913 9.70359 25.7156 9.75208 25.9398 9.7945C26.1641 9.83693 26.3883 9.90966 26.6186 9.98239C27.5799 10.3062 28.4547 10.8451 29.1762 11.5581C29.8832 12.2904 30.4157 13.173 30.7338 14.14C30.8056 14.361 30.8663 14.5855 30.9156 14.8127C30.9607 15.0347 30.9911 15.2594 31.0065 15.4854C31.0065 15.7036 31.0065 15.9157 31.0065 16.1278C31.0065 16.34 30.9641 16.546 30.9338 16.7339C30.8224 17.4716 30.5124 18.1651 30.0368 18.74C29.5989 19.245 29.037 19.6272 28.4065 19.8491C28.8086 19.8977 29.2143 19.9098 29.6186 19.8854C30.4297 19.8463 31.2106 19.5656 31.861 19.0793C32.2254 18.8043 32.5392 18.468 32.7883 18.0854Z" fill="url(#paint1_linear_349_408)"/>
<path d="M29.5571 17.9515C29.7863 17.6386 29.9586 17.2878 30.0662 16.9152C30.1779 16.5417 30.231 16.1533 30.2238 15.7636C30.2293 15.3374 30.1721 14.9127 30.0541 14.503C29.7921 13.5902 29.3068 12.757 28.642 12.0788C27.9657 11.4115 27.1318 10.9258 26.2178 10.6667C25.8076 10.5512 25.3832 10.4941 24.9571 10.497C24.5691 10.4914 24.1826 10.5466 23.8117 10.6606C23.439 10.77 23.0868 10.9399 22.7693 11.1636C22.4764 11.3842 22.2206 11.6502 22.0117 11.9515C21.6362 12.52 21.3957 13.1668 21.3087 13.8424C21.2617 14.1819 21.2354 14.524 21.2299 14.8667C21.4291 14.4055 21.7246 13.9923 22.0965 13.6546C22.4854 13.3212 22.9525 13.0918 23.4541 12.9879C24.0395 12.8874 24.6404 12.9288 25.2065 13.1085C25.7726 13.2882 26.2874 13.601 26.7077 14.0206C27.1279 14.4403 27.4415 14.9546 27.622 15.5205C27.8025 16.0863 27.8447 16.6872 27.745 17.2727C27.6379 17.7732 27.4089 18.2396 27.0784 18.6303C26.7434 19.0053 26.3294 19.3013 25.8662 19.497C26.2091 19.4944 26.5513 19.4681 26.8905 19.4182C27.5664 19.3322 28.2134 19.0916 28.7814 18.7152C29.0801 18.5049 29.3422 18.2469 29.5571 17.9515Z" fill="url(#paint2_linear_349_408)"/>
<path d="M26.8723 17.5698C27.0636 17.0737 27.1078 16.5329 26.9995 16.0122C26.9316 15.7406 26.8362 15.4766 26.7147 15.2244C26.5518 14.9838 26.3672 14.7586 26.1632 14.5516V14.5213L25.9329 14.3335C25.7876 14.2149 25.6337 14.1075 25.4723 14.0122C25.2209 13.8872 24.9567 13.7896 24.6844 13.7213C24.1296 13.6013 23.5509 13.6618 23.033 13.894C22.5151 14.1263 22.085 14.5181 21.8056 15.0122C21.5279 15.4987 21.3236 16.0236 21.1995 16.5698C21.1268 16.8486 21.0723 17.1274 21.0298 17.388C21.1839 17.0774 21.3887 16.7948 21.6359 16.5516C21.8731 16.3274 22.1565 16.1577 22.4662 16.0547C22.7714 15.9621 23.0956 15.9515 23.4062 16.0238C23.7168 16.0961 24.003 16.2489 24.2359 16.4668C24.4548 16.6991 24.6087 16.985 24.6821 17.2956C24.7555 17.6063 24.7458 17.9308 24.6541 18.2365C24.5478 18.5447 24.3785 18.8275 24.1571 19.0668C23.9088 19.3106 23.6247 19.515 23.3147 19.6729C23.5813 19.6244 23.8541 19.5698 24.1329 19.5032C24.6799 19.3816 25.2051 19.1772 25.6904 18.8971C26.223 18.6009 26.6396 18.1331 26.8723 17.5698Z" fill="url(#paint3_linear_349_408)"/>
<path d="M19.0358 5.73375C18.686 5.31206 18.2631 4.95688 17.7873 4.68526C17.2341 4.3572 16.6328 4.11793 16.0055 3.97617C15.2769 3.80652 14.5288 3.73519 13.7812 3.76406C13.375 3.78162 12.9702 3.82411 12.5691 3.89132C12.1338 3.96698 11.7029 4.06612 11.2782 4.1883C9.39185 4.76144 7.67546 5.78984 6.28034 7.18285C4.88522 8.57586 3.85421 10.2907 3.27821 12.1762C3.15472 12.6005 3.05556 13.0315 2.98124 13.4671C2.91146 13.8778 2.87095 14.293 2.86003 14.7095C2.82546 15.4572 2.89687 16.206 3.07215 16.9337C3.21408 17.5601 3.45117 18.161 3.77518 18.7156C4.04685 19.1896 4.40207 19.6105 4.82367 19.958C5.34564 20.3964 5.97187 20.6928 6.64185 20.8186H8.69639C7.92321 20.5244 7.24158 20.0309 6.72064 19.3883C6.4119 19.0222 6.15682 18.6141 5.96306 18.1762C5.74079 17.6866 5.5878 17.1685 5.50852 16.6368C5.41582 16.0353 5.39548 15.4249 5.44791 14.8186C5.50675 14.1525 5.64303 13.4956 5.85397 12.861C6.35708 11.4338 7.17056 10.1359 8.23579 9.06102C9.28944 8.02609 10.5607 7.23931 11.957 6.758C12.5923 6.5486 13.2488 6.41037 13.9146 6.34587C14.5209 6.29401 15.1312 6.31436 15.7328 6.40648C16.263 6.49235 16.7803 6.64508 17.2722 6.86103C17.7084 7.06055 18.116 7.31735 18.4843 7.62466C19.1263 8.14373 19.6197 8.82323 19.9146 9.59436V7.53981C19.7824 6.87206 19.4796 6.24988 19.0358 5.73375Z" fill="url(#paint4_linear_349_408)"/>
<path d="M18.9515 11.0727C18.9124 10.2616 18.6317 9.4807 18.1454 8.8303C17.8737 8.47566 17.5413 8.17197 17.1636 7.93332C16.7326 7.66549 16.2652 7.46136 15.7758 7.32726C15.2343 7.2092 14.6814 7.15228 14.1273 7.15756C13.5116 7.18877 12.9016 7.29044 12.3091 7.46059C11.6572 7.65743 11.0323 7.93429 10.4485 8.28484C9.82749 8.6502 9.25179 9.08757 8.73333 9.58787C8.22296 10.1111 7.77362 10.6906 7.39393 11.3151C7.04521 11.8991 6.77038 12.5241 6.57575 13.1758C6.40318 13.7677 6.30146 14.378 6.27272 14.9939C6.26138 15.5463 6.31838 16.098 6.44242 16.6364C6.57262 17.1271 6.777 17.5952 7.04848 18.0242C7.29094 18.4026 7.59635 18.7367 7.95151 19.0121C8.60083 19.5003 9.38237 19.7813 10.1939 19.8182C10.5982 19.8426 11.0039 19.8304 11.4061 19.7818C10.7748 19.5615 10.2125 19.179 9.77575 18.6727C9.2978 18.0994 8.98741 17.4052 8.87878 16.6667C8.84215 16.4663 8.81786 16.2639 8.80605 16.0606C8.80605 15.8485 8.80605 15.6363 8.80605 15.4182C8.82238 15.1926 8.85071 14.968 8.8909 14.7454C8.94545 14.5212 9.00605 14.297 9.07878 14.0727C9.40644 13.11 9.94715 12.2337 10.6606 11.5091C11.3821 10.7961 12.2569 10.2572 13.2182 9.93332C13.4485 9.86059 13.6727 9.79999 13.8909 9.74544C14.1091 9.6909 14.3454 9.67878 14.5636 9.65454C14.7776 9.6426 14.9921 9.6426 15.2061 9.65454C15.4182 9.65454 15.6242 9.6909 15.8121 9.72121C16.5469 9.8362 17.2375 10.1459 17.8121 10.6182C18.3178 11.0555 18.7001 11.6176 18.9212 12.2485C18.9685 11.8584 18.9786 11.4647 18.9515 11.0727Z" fill="url(#paint5_linear_349_408)"/>
<path d="M12.054 17.2668C11.9547 16.6819 11.9969 16.0817 12.177 15.5164C12.3572 14.9511 12.6702 14.4372 13.0897 14.0176C13.5093 13.5981 14.0232 13.2852 14.5884 13.105C15.1537 12.9248 15.754 12.8826 16.3389 12.982C16.8426 13.0849 17.3119 13.3143 17.7025 13.6486C18.0744 13.9863 18.3699 14.3996 18.5692 14.8607C18.5615 14.5179 18.5332 14.1759 18.4843 13.8365C18.4 13.1602 18.1593 12.5127 17.7813 11.9456C17.5745 11.6445 17.3208 11.3785 17.0298 11.1577C16.7123 10.934 16.3601 10.764 15.9874 10.6547C15.6143 10.5411 15.2258 10.4859 14.8359 10.4911C14.4118 10.4886 13.9895 10.5457 13.5813 10.6607C12.6672 10.9198 11.8334 11.4056 11.1571 12.0729C10.4907 12.7509 10.0033 13.5839 9.73889 14.4971C9.62721 14.908 9.57016 15.3319 9.56919 15.7577C9.567 16.1475 9.62213 16.5355 9.73283 16.9092C9.84048 17.2819 10.0128 17.6326 10.2419 17.9456C10.4594 18.2412 10.7259 18.4974 11.0298 18.7032C11.5977 19.0796 12.2448 19.3202 12.9207 19.4062C13.2599 19.4561 13.6021 19.4824 13.9449 19.485C13.4818 19.2893 13.0678 18.9933 12.7328 18.6183C12.396 18.2324 12.1624 17.7674 12.054 17.2668Z" fill="url(#paint6_linear_349_408)"/>
<path d="M18.5755 16.564C18.4514 16.0177 18.2472 15.4928 17.9694 15.0064C17.6901 14.5123 17.26 14.1205 16.742 13.8882C16.2241 13.6559 15.6454 13.5954 15.0907 13.7155C14.5457 13.8312 14.0452 14.1004 13.6482 14.4912C13.4493 14.7051 13.2726 14.9386 13.121 15.1882C12.9968 15.4393 12.9012 15.7036 12.8361 15.9761C12.7278 16.4967 12.772 17.0375 12.9634 17.5337C13.1917 18.0908 13.6018 18.5544 14.127 18.8488C14.6107 19.1279 15.1338 19.3322 15.6785 19.4549C15.9634 19.5215 16.2361 19.5761 16.5028 19.6246C16.1927 19.4667 15.9086 19.2623 15.6604 19.0185C15.4389 18.7792 15.2697 18.4964 15.1634 18.1882C15.0716 17.8825 15.0619 17.558 15.1353 17.2473C15.2087 16.9367 15.3626 16.6508 15.5816 16.4185C15.8145 16.2006 16.1006 16.0479 16.4112 15.9755C16.7219 15.9032 17.0461 15.9138 17.3513 16.0064C17.661 16.1095 17.9444 16.2791 18.1816 16.5033C18.4268 16.7481 18.6314 17.0304 18.7876 17.3397C18.7028 17.1215 18.6422 16.8427 18.5755 16.564Z" fill="url(#paint7_linear_349_408)"/>
<path d="M21.6491 32.8123C21.9241 33.1639 22.2559 33.467 22.6309 33.7092C23.0619 33.9771 23.5294 34.1812 24.0188 34.3153C24.5602 34.4334 25.1131 34.4903 25.6672 34.485C26.2834 34.4541 26.8937 34.3503 27.4854 34.1759C28.1365 33.9795 28.7598 33.7005 29.34 33.3456C29.8828 33.0165 30.3905 32.6326 30.8551 32.2001C30.8975 32.1638 30.94 32.1092 30.9824 32.0668L31.0612 32.0001C31.5624 31.4712 32.011 30.8948 32.4006 30.2789C32.7536 29.6964 33.0306 29.0712 33.2248 28.4183C33.394 27.8256 33.4957 27.2157 33.5279 26.6001C33.5365 26.0479 33.4795 25.4965 33.3582 24.9577C33.228 24.4669 33.0236 23.9989 32.7521 23.5698C32.5096 23.1914 32.2042 22.8573 31.8491 22.582C31.1987 22.0957 30.4178 21.815 29.6066 21.7759C29.2023 21.7515 28.7966 21.7636 28.3945 21.8123C29.025 22.0341 29.5869 22.4163 30.0248 22.9214C30.4994 23.4945 30.8094 24.1858 30.9218 24.9214C30.9218 25.1214 30.9824 25.3274 30.9945 25.5274C31.0066 25.7274 30.9945 25.9517 30.9945 26.1698C30.9838 26.4037 30.9575 26.6365 30.9157 26.8668C30.8665 27.094 30.8058 27.3185 30.7339 27.5395C30.406 28.5003 29.8653 29.3746 29.1521 30.0971C28.4328 30.8143 27.5575 31.3557 26.5945 31.6789C26.3642 31.7517 26.14 31.8123 25.9157 31.8668C25.6915 31.9214 25.4672 31.9335 25.2491 31.9577C25.0309 31.982 24.8127 31.9577 24.6066 31.9577C24.4006 31.9577 24.1885 31.9214 24.0006 31.8911C23.264 31.776 22.5714 31.4663 21.9945 30.9941C21.4807 30.5554 21.0883 29.9918 20.8551 29.3577C20.8094 29.76 20.7973 30.1655 20.8188 30.5698C20.8682 31.3829 21.1571 32.1631 21.6491 32.8123Z" fill="url(#paint8_linear_349_408)"/>
<path d="M21.8307 26.637C22.1101 27.1311 22.5402 27.5229 23.0581 27.7552C23.5761 27.9874 24.1547 28.0479 24.7095 27.9279C24.9819 27.8596 25.246 27.762 25.4974 27.637C25.6588 27.5417 25.8128 27.4343 25.958 27.3157L26.0671 27.2248L26.1944 27.1158C26.3959 26.9056 26.5709 26.6715 26.7156 26.4188C26.8371 26.1665 26.9325 25.9025 27.0004 25.6309C27.1091 25.1103 27.0649 24.5694 26.8731 24.0733C26.6433 23.5152 26.231 23.0515 25.7035 22.7582C25.2181 22.478 24.6929 22.2737 24.1459 22.1521C23.8671 22.0855 23.5944 22.0309 23.3277 21.9824C23.639 22.1383 23.9234 22.3429 24.1701 22.5885C24.3901 22.8265 24.5592 23.107 24.6671 23.4127C24.76 23.7193 24.7703 24.045 24.6968 24.3569C24.6234 24.6687 24.4689 24.9556 24.2489 25.1885C24.016 25.4064 23.7299 25.5591 23.4192 25.6315C23.1086 25.7038 22.7844 25.6932 22.4792 25.6006C22.1705 25.4953 21.8876 25.3259 21.6489 25.1036C21.4018 24.8605 21.1969 24.5778 21.0428 24.2673C21.0853 24.5279 21.1398 24.8067 21.2125 25.0854C21.3421 25.6299 21.5504 26.1526 21.8307 26.637Z" fill="url(#paint9_linear_349_408)"/>
<path d="M36.7399 24.7098C36.592 24.0805 36.3444 23.479 36.0065 22.9279C35.7368 22.4526 35.3813 22.0314 34.958 21.6855C34.4369 21.2447 33.8105 20.9461 33.1399 20.8188H31.0974C31.8683 21.1173 32.5489 21.61 33.0732 22.2492C33.3772 22.6187 33.6318 23.0261 33.8308 23.4613C34.0494 23.9543 34.2023 24.4739 34.2853 25.0067C34.378 25.6082 34.3984 26.2186 34.3459 26.8249C34.282 27.4908 34.1438 28.1474 33.9338 28.7825C33.4506 30.1987 32.6505 31.486 31.5944 32.5461C30.5357 33.6011 29.2507 34.4011 27.8368 34.8855C27.2015 35.0945 26.545 35.2327 25.8793 35.2976C25.2729 35.3465 24.6629 35.3262 24.0611 35.237C23.5308 35.1512 23.0135 34.9984 22.5217 34.7825C22.0855 34.583 21.6779 34.3262 21.3096 34.0188C20.6656 33.4991 20.1719 32.8171 19.8793 32.0431V34.1037C20.0055 34.7735 20.3019 35.3996 20.7399 35.9219C21.0896 36.3436 21.5125 36.6988 21.9883 36.9704C22.5411 37.2949 23.1398 37.534 23.7641 37.6795C24.4946 37.8499 25.245 37.9192 25.9944 37.8855C26.4007 37.8729 26.8057 37.8324 27.2065 37.7643C27.64 37.6893 28.069 37.5901 28.4914 37.4673C30.3607 36.8983 32.0627 35.8809 33.449 34.5037C35.1858 32.8133 36.3404 30.6145 36.7459 28.2249C36.8097 27.8134 36.8502 27.3986 36.8671 26.9825C36.9311 26.2227 36.8882 25.4577 36.7399 24.7098Z" fill="url(#paint10_linear_349_408)"/>
<path d="M27.7391 24.3761C27.8432 24.9634 27.8043 25.5671 27.6258 26.1362C27.4473 26.7053 27.1344 27.2231 26.7135 27.6457C26.2926 28.0684 25.7762 28.3835 25.2078 28.5644C24.6395 28.7453 24.0359 28.7868 23.4482 28.6852C22.9472 28.5795 22.4805 28.3504 22.0906 28.0185C21.7187 27.6808 21.4232 27.2675 21.224 26.8064C21.2295 27.1491 21.2558 27.4911 21.3027 27.8306C21.3888 28.5047 21.6294 29.1497 22.0058 29.7155C22.2115 30.0194 22.4677 30.2858 22.7633 30.5033C23.0792 30.7313 23.4318 30.9035 23.8058 31.0124C24.1767 31.1265 24.5632 31.1817 24.9512 31.1761C25.3773 31.1789 25.8017 31.1218 26.2118 31.0064C27.1259 30.7473 27.9598 30.2616 28.6361 29.5943C29.3009 28.9161 29.7862 28.0829 30.0482 27.17C30.1658 26.7603 30.2229 26.3356 30.2179 25.9094C30.2251 25.5197 30.172 25.1313 30.0603 24.7579C29.9527 24.3853 29.7803 24.0345 29.5512 23.7215C29.3338 23.4258 29.0673 23.1696 28.7633 22.964C28.1954 22.5875 27.5484 22.3469 26.8724 22.2609C26.5333 22.211 26.191 22.1847 25.8482 22.1821C26.3098 22.3778 26.7234 22.6715 27.0603 23.0427C27.3899 23.4265 27.6227 23.8838 27.7391 24.3761Z" fill="url(#paint11_linear_349_408)"/>
<path d="M18.4661 33.994C18.0978 34.3013 17.6902 34.5581 17.254 34.7577C16.7621 34.9736 16.2449 35.1263 15.7146 35.2122C15.1128 35.3012 14.5028 35.3216 13.8964 35.2728C13.2306 35.2083 12.5741 35.0701 11.9388 34.8607C10.5238 34.375 9.23704 33.5752 8.17518 32.5213C7.12324 31.4579 6.32374 30.1716 5.83579 28.7577C5.62485 28.1231 5.48857 27.4662 5.42973 26.8001C5.37729 26.1938 5.39764 25.5834 5.49034 24.9819C5.57052 24.4484 5.72346 23.9284 5.94488 23.4365C6.14155 23.0001 6.39639 22.5923 6.70246 22.2243C7.23324 21.5871 7.92027 21.0984 8.69639 20.8062H6.64185C5.97144 20.9342 5.34529 21.2327 4.82367 21.6728C4.40207 22.0203 4.04685 22.4412 3.77518 22.9153C3.45022 23.4693 3.21306 24.0704 3.07215 24.6971C2.89687 25.4248 2.82546 26.1736 2.86003 26.9213C2.87095 27.3378 2.91146 27.753 2.98124 28.1637C3.38675 30.5533 4.54133 32.7521 6.27821 34.4425C7.66004 35.8135 9.35554 36.8267 11.2176 37.394C11.6422 37.5162 12.0732 37.6153 12.5085 37.691C12.9093 37.7591 13.3143 37.7996 13.7206 37.8122C14.468 37.846 15.2164 37.7767 15.9449 37.6062C16.5714 37.4617 17.1722 37.2226 17.7267 36.8971C18.2192 36.6496 18.6627 36.3149 19.0358 35.9092C19.4738 35.3869 19.7701 34.7608 19.8964 34.091V32.0304C19.5998 32.7989 19.1066 33.476 18.4661 33.994Z" fill="url(#paint12_linear_349_408)"/>
<path d="M7.00595 23.5581C6.73446 23.9872 6.53009 24.4552 6.39989 24.946C6.27548 25.4843 6.21848 26.036 6.23019 26.5884C6.25938 27.2043 6.36109 27.8145 6.53322 28.4066C6.72785 29.0583 7.00268 29.6832 7.3514 30.2672C7.74838 30.8967 8.21163 31.4818 8.73322 32.0126L8.76958 32.0551C9.27159 32.5469 9.8312 32.9763 10.4363 33.3339C11.0195 33.6808 11.6448 33.9517 12.2969 34.1399C12.8885 34.3148 13.4989 34.4186 14.115 34.449C14.6692 34.4543 15.2221 34.3974 15.7635 34.2793C16.2529 34.1452 16.7204 33.9411 17.1514 33.6733C17.5264 33.4311 17.8582 33.1279 18.1332 32.7763C18.6195 32.1259 18.9002 31.345 18.9393 30.5338C18.9668 30.1296 18.9547 29.7236 18.9029 29.3217C18.6961 29.9624 18.324 30.5373 17.8241 30.9884C17.2495 31.4606 16.5589 31.7704 15.8241 31.8854C15.6241 31.9157 15.4181 31.9399 15.2181 31.952C15.0181 31.9642 14.7938 31.952 14.5756 31.952C14.3575 31.952 14.1272 31.9035 13.9029 31.8611C13.6787 31.8187 13.4605 31.746 13.2302 31.6732C12.2672 31.35 11.3919 30.8087 10.6726 30.0914C9.95944 29.3689 9.41871 28.4946 9.0908 27.5339C9.01807 27.3096 8.95746 27.0854 8.90292 26.8611C8.86309 26.6385 8.83477 26.414 8.81807 26.1884C8.81807 25.9702 8.81807 25.7581 8.81807 25.546C8.83012 25.3427 8.85441 25.1403 8.89079 24.9399C9.00049 24.2035 9.31083 23.5116 9.78777 22.9399C10.2245 22.4336 10.7868 22.0511 11.4181 21.8308C11.0159 21.7822 10.6103 21.77 10.2059 21.7945C9.39439 21.8314 8.61285 22.1123 7.96352 22.6005C7.59145 22.862 7.26747 23.186 7.00595 23.5581Z" fill="url(#paint13_linear_349_408)"/>
<path d="M10.236 23.691C10.0069 24.0039 9.83456 24.3547 9.72691 24.7273C9.61621 25.1011 9.56107 25.4891 9.56327 25.8788C9.56423 26.3047 9.62129 26.7285 9.73297 27.1395C9.9974 28.0526 10.4847 28.8857 11.1512 29.5637C11.8275 30.231 12.6613 30.7167 13.5754 30.9758C13.9836 31.0909 14.4059 31.148 14.8299 31.1455C15.2199 31.1507 15.6084 31.0955 15.9815 30.9819C16.3554 30.8729 16.708 30.7007 17.0239 30.4728C17.3177 30.2552 17.5719 29.9887 17.7754 29.6849C18.1543 29.1205 18.3952 28.4748 18.4784 27.8001C18.5273 27.4607 18.5556 27.1186 18.5633 26.7758C18.364 27.237 18.0685 27.6502 17.6966 27.9879C17.3051 28.3209 16.8362 28.5502 16.333 28.6546C15.748 28.754 15.1478 28.7118 14.5825 28.5316C14.0172 28.3514 13.5033 28.0385 13.0838 27.6189C12.6643 27.1994 12.3513 26.6855 12.1711 26.1202C11.9909 25.5549 11.9488 24.9547 12.0481 24.3698C12.1538 23.8669 12.3829 23.3983 12.7148 23.0061C13.0517 22.6348 13.4653 22.3412 13.9269 22.1455C13.5841 22.1481 13.2419 22.1744 12.9027 22.2243C12.2267 22.3103 11.5797 22.5509 11.0118 22.9273C10.7103 23.1343 10.4477 23.3928 10.236 23.691Z" fill="url(#paint14_linear_349_408)"/>
<path d="M12.9208 24.0733C12.7243 24.5767 12.68 25.1268 12.7935 25.6551C12.8586 25.9276 12.9542 26.1919 13.0784 26.443C13.2315 26.6916 13.4081 26.925 13.6056 27.14V27.1703C13.803 27.3495 14.0183 27.5079 14.248 27.643C14.499 27.769 14.7633 27.8666 15.0359 27.9339C15.5907 28.054 16.1694 27.9935 16.6873 27.7612C17.2053 27.529 17.6353 27.1371 17.9147 26.643C18.1914 26.1561 18.3956 25.6314 18.5208 25.0854C18.5874 24.8067 18.648 24.5279 18.6905 24.2673C18.5343 24.5765 18.3297 24.8589 18.0844 25.1036C17.8457 25.3259 17.5628 25.4953 17.2541 25.6006C16.9489 25.6932 16.6247 25.7038 16.3141 25.6315C16.0035 25.5591 15.7173 25.4064 15.4844 25.1885C15.2644 24.9556 15.1099 24.6687 15.0365 24.3569C14.9631 24.045 14.9733 23.7193 15.0662 23.4127C15.1741 23.107 15.3432 22.8265 15.5632 22.5885C15.8099 22.3429 16.0943 22.1383 16.4056 21.9824C16.139 22.0309 15.8662 22.0855 15.5814 22.1521C15.0366 22.2748 14.5135 22.4791 14.0299 22.7582C13.5238 23.0606 13.1334 23.5235 12.9208 24.0733Z" fill="url(#paint15_linear_349_408)"/>
<defs>
<linearGradient id="paint0_linear_349_408" x1="19.8964" y1="12.2911" x2="36.957" y2="12.2911" gradientUnits="userSpaceOnUse">
<stop stop-color="#E53282"/>
<stop offset="1" stop-color="#851D7B"/>
</linearGradient>
<linearGradient id="paint1_linear_349_408" x1="20.8247" y1="13.5339" x2="33.5459" y2="13.5339" gradientUnits="userSpaceOnUse">
<stop stop-color="#E53282"/>
<stop offset="1" stop-color="#851D7B"/>
</linearGradient>
<linearGradient id="paint2_linear_349_408" x1="21.2238" y1="14.9879" x2="30.2299" y2="14.9879" gradientUnits="userSpaceOnUse">
<stop stop-color="#E53282"/>
<stop offset="1" stop-color="#851D7B"/>
</linearGradient>
<linearGradient id="paint3_linear_349_408" x1="21.048" y1="16.6668" x2="27.0541" y2="16.6668" gradientUnits="userSpaceOnUse">
<stop stop-color="#E53282"/>
<stop offset="1" stop-color="#851D7B"/>
</linearGradient>
<linearGradient id="paint4_linear_349_408" x1="2.82973" y1="12.2913" x2="19.8964" y2="12.2913" gradientUnits="userSpaceOnUse">
<stop stop-color="#F08504"/>
<stop offset="1" stop-color="#E5322D"/>
</linearGradient>
<linearGradient id="paint5_linear_349_408" x1="6.24848" y1="13.5333" x2="18.9697" y2="13.5333" gradientUnits="userSpaceOnUse">
<stop stop-color="#F08504"/>
<stop offset="1" stop-color="#E5322D"/>
</linearGradient>
<linearGradient id="paint6_linear_349_408" x1="9.56313" y1="14.988" x2="18.5692" y2="14.988" gradientUnits="userSpaceOnUse">
<stop stop-color="#F08504"/>
<stop offset="1" stop-color="#E5322D"/>
</linearGradient>
<linearGradient id="paint7_linear_349_408" x1="12.7331" y1="16.667" x2="18.7452" y2="16.667" gradientUnits="userSpaceOnUse">
<stop stop-color="#F08504"/>
<stop offset="1" stop-color="#E5322D"/>
</linearGradient>
<linearGradient id="paint8_linear_349_408" x1="20.9157" y1="35.1395" x2="35.0854" y2="21.9577" gradientUnits="userSpaceOnUse">
<stop stop-color="#97BE11"/>
<stop offset="1" stop-color="#258F2D"/>
</linearGradient>
<linearGradient id="paint9_linear_349_408" x1="17.4125" y1="31.3824" x2="31.5883" y2="18.2006" gradientUnits="userSpaceOnUse">
<stop stop-color="#97BE11"/>
<stop offset="1" stop-color="#258F2D"/>
</linearGradient>
<linearGradient id="paint10_linear_349_408" x1="22.4611" y1="36.8067" x2="36.6368" y2="23.6249" gradientUnits="userSpaceOnUse">
<stop stop-color="#97BE11"/>
<stop offset="1" stop-color="#258F2D"/>
</linearGradient>
<linearGradient id="paint11_linear_349_408" x1="19.224" y1="33.3215" x2="33.3936" y2="20.1458" gradientUnits="userSpaceOnUse">
<stop stop-color="#97BE11"/>
<stop offset="1" stop-color="#258F2D"/>
</linearGradient>
<linearGradient id="paint12_linear_349_408" x1="15.7873" y1="36.4789" x2="5.01761" y2="23.7213" gradientUnits="userSpaceOnUse">
<stop stop-color="#3AB4E6"/>
<stop offset="1" stop-color="#004996"/>
</linearGradient>
<linearGradient id="paint13_linear_349_408" x1="17.4847" y1="35.049" x2="6.70897" y2="22.2914" gradientUnits="userSpaceOnUse">
<stop stop-color="#3AB4E6"/>
<stop offset="1" stop-color="#004996"/>
</linearGradient>
<linearGradient id="paint14_linear_349_408" x1="19.333" y1="33.4849" x2="8.56327" y2="20.7273" gradientUnits="userSpaceOnUse">
<stop stop-color="#3AB4E6"/>
<stop offset="1" stop-color="#004996"/>
</linearGradient>
<linearGradient id="paint15_linear_349_408" x1="21.3329" y1="31.8006" x2="10.5571" y2="19.043" gradientUnits="userSpaceOnUse">
<stop stop-color="#3AB4E6"/>
<stop offset="1" stop-color="#004996"/>
</linearGradient>
</defs>
</svg>
