<svg width="40" height="41" viewBox="0 0 40 41" fill="none" xmlns="http://www.w3.org/2000/svg">
<path d="M29.4631 25.9355C29.451 25.7531 29.428 25.5715 29.3943 25.3918L29.3568 25.1605C29.2886 24.7498 29.1904 24.3445 29.0631 23.948L28.9944 23.7043C28.783 23.1231 28.541 22.5536 28.2693 21.998L25.9193 25.3168C24.8884 26.7876 23.641 28.0941 22.2194 29.1918C21.0667 30.0767 19.7795 30.7709 18.4068 31.248C16.5075 31.9541 14.448 32.1122 12.4631 31.7043C10.1947 31.2519 8.0886 30.201 6.36309 28.6605C4.77875 27.273 3.5015 25.57 2.61309 23.6605C2.52928 24.1563 2.48331 24.6578 2.47559 25.1605C2.48893 25.7884 2.54322 26.4147 2.63809 27.0355L2.6881 27.248C2.79721 27.8471 2.95396 28.4365 3.15685 29.0105C3.38964 29.6884 3.68028 30.345 4.02559 30.973C4.24434 31.373 4.41935 31.673 4.58185 31.948C4.74435 32.223 4.98185 32.523 5.20685 32.8168C7.41284 35.7733 10.6879 37.7496 14.3318 38.323C15.4999 38.5064 16.6866 38.54 17.8631 38.423C19.3702 38.3544 20.8524 38.0135 22.2381 37.4168L22.4381 37.3168C22.9304 37.0782 23.4083 36.8111 23.8693 36.5168C25.6711 35.3755 27.153 33.7947 28.1756 31.923C29.0224 30.344 29.4749 28.5835 29.4943 26.7918C29.4881 26.4855 29.4818 26.2105 29.4631 25.9355Z" fill="url(#paint0_linear_349_481)"/>
<path d="M37.1124 20.7228C37.6937 22.6365 37.862 24.6518 37.6061 26.6353C37.2304 29.2349 36.1496 31.6818 34.4811 33.7103C32.8222 35.7694 30.6141 37.3166 28.1124 38.1728C26.6002 38.6869 24.993 38.8598 23.4061 38.6791C25.482 37.6544 27.2774 36.14 28.6374 34.2666C29.8983 32.523 30.7136 30.4975 31.0123 28.3666C31.221 26.8372 31.1081 25.2811 30.6811 23.7978C29.9709 21.3197 28.6541 19.0577 26.8498 17.2166C26.1938 16.4745 25.4629 15.8021 24.6686 15.2103L24.5311 15.0978L24.3123 14.9603C24.2169 14.9035 24.1251 14.8409 24.0373 14.7728L23.7374 14.5853C23.6395 14.5338 23.5455 14.4753 23.4561 14.4103L23.3311 14.3353C23.2211 14.284 23.1147 14.2256 23.0124 14.1603C22.9114 14.0964 22.8071 14.038 22.6999 13.9853C22.6113 13.9479 22.5257 13.9041 22.4436 13.8541C22.3142 13.7741 22.1783 13.7051 22.0374 13.6478C21.4686 13.3666 20.8374 13.0791 20.1624 12.7916L20.2561 12.7228C20.4186 12.6353 20.5811 12.5353 20.7561 12.4228C20.9311 12.3103 21.1436 12.1791 21.3811 12.0666C23.0014 11.2048 24.8455 10.8561 26.6686 11.0666C28.8214 11.3372 30.8559 12.203 32.5436 13.5666C33.614 14.4261 34.5421 15.4491 35.2936 16.5978C36.0995 17.8759 36.7123 19.2658 37.1124 20.7228Z" fill="url(#paint1_linear_349_481)"/>
<path d="M18.0374 12.3225C16.6268 13.4222 15.3882 14.7261 14.3624 16.1912L12.0248 19.4912C11.7508 18.9432 11.5087 18.3797 11.2999 17.8037L11.2186 17.5287C11.0927 17.1429 10.9966 16.748 10.9311 16.3475L10.8998 16.135C10.8686 15.9412 10.8373 15.7412 10.8186 15.5725C10.8186 15.3037 10.8186 15.0225 10.7874 14.7537C10.7895 13.8746 10.9008 12.9992 11.1186 12.1475C11.3432 11.2793 11.6683 10.4403 12.0873 9.64747C13.0935 7.76963 14.5602 6.17818 16.3498 5.02247C18.4758 3.63515 20.9551 2.8868 23.4936 2.86622C26.4692 2.84132 29.3773 3.7531 31.8061 5.47247C32.3061 5.82872 32.7999 6.25372 33.3436 6.72247C33.8434 7.21197 34.315 7.72947 34.7561 8.27247L34.9373 8.51622C35.3261 9.01382 35.6732 9.54271 35.9748 10.0975C36.1623 10.4225 36.3311 10.7225 36.4936 11.0662C36.6561 11.41 36.7311 11.6287 36.8373 11.9162L36.9811 12.2912C37.0749 12.5537 37.1623 12.7975 37.2248 13.0412C37.3123 13.385 37.3936 13.7287 37.4623 14.0787C37.5905 14.6956 37.6575 15.3237 37.6624 15.9537C37.6789 16.4224 37.6475 16.8915 37.5686 17.3537C36.6469 15.473 35.3444 13.8044 33.7436 12.4537C31.9652 10.958 29.825 9.95578 27.5373 9.54747C25.5228 9.1799 23.4451 9.39678 21.5499 10.1725L21.3498 10.2662C20.9166 10.4591 20.4987 10.6848 20.0998 10.9412L19.8436 11.0975L19.4374 11.3475C19.2186 11.5037 19.0373 11.6287 18.8811 11.7225C18.7061 11.8268 18.539 11.9438 18.3811 12.0725C18.2851 12.1469 18.1849 12.2157 18.0811 12.2787L18.0374 12.3225Z" fill="url(#paint2_linear_349_481)"/>
<path d="M20.0247 28.7037C19.606 28.9162 19.181 29.1225 18.7747 29.3287L18.6997 29.36C17.0706 30.1996 15.218 30.5036 13.406 30.2287C11.3256 29.9347 9.36755 29.0693 7.7497 27.7287C5.93442 26.2116 4.54336 24.2499 3.7122 22.035L3.6747 21.9225C3.65655 21.8714 3.63569 21.8213 3.6122 21.7725L3.3622 20.9912C3.34074 20.8966 3.30035 20.8073 3.24345 20.7287C2.53714 18.7241 2.36483 16.5702 2.74346 14.4787C3.18478 11.9413 4.29601 9.56776 5.96221 7.60374C7.63155 5.60933 9.82739 4.12377 12.2997 3.31624C13.7678 2.82758 15.3249 2.66547 16.8622 2.84124C14.7885 3.86684 12.9969 5.38378 11.6435 7.25999C10.3909 9.00162 9.58206 11.0225 9.28721 13.1475C9.08269 14.6517 9.19336 16.1821 9.6122 17.6412C10.3596 20.0771 11.665 22.3049 13.4247 24.1475C14.0596 24.8853 14.765 25.5594 15.531 26.16C16.9312 27.1699 18.4381 28.023 20.0247 28.7037Z" fill="url(#paint3_linear_349_481)"/>
<defs>
<linearGradient id="paint0_linear_349_481" x1="28.2631" y1="25.0605" x2="1.73184" y2="34.3043" gradientUnits="userSpaceOnUse">
<stop stop-color="#004996"/>
<stop offset="1" stop-color="#3AB4E6"/>
</linearGradient>
<linearGradient id="paint1_linear_349_481" x1="24.7749" y1="12.4103" x2="32.8374" y2="37.7916" gradientUnits="userSpaceOnUse">
<stop stop-color="#851D7B"/>
<stop offset="1" stop-color="#E53282"/>
</linearGradient>
<linearGradient id="paint2_linear_349_481" x1="10.8061" y1="15.4975" x2="35.8499" y2="8.34122" gradientUnits="userSpaceOnUse">
<stop stop-color="#E5322D"/>
<stop offset="1" stop-color="#F08504"/>
</linearGradient>
<linearGradient id="paint3_linear_349_481" x1="18.331" y1="28.4162" x2="6.09971" y2="4.25999" gradientUnits="userSpaceOnUse">
<stop stop-color="#258F2D"/>
<stop offset="1" stop-color="#97BE11"/>
</linearGradient>
</defs>
</svg>
