<svg width="48" height="48" viewBox="0 0 48 48" fill="none" xmlns="http://www.w3.org/2000/svg">
<path d="M22.4998 16.1599V21.8799L20.4798 21.1799C19.4598 20.8199 18.8398 20.4799 18.8398 18.7399C18.8398 17.3199 19.8998 16.1599 21.1998 16.1599H22.4998Z" fill="url(#paint0_linear_298_6550)"/>
<path d="M29.16 29.2601C29.16 30.6801 28.1 31.8401 26.8 31.8401H25.5V26.1201L27.52 26.8201C28.54 27.1801 29.16 27.5201 29.16 29.2601Z" fill="url(#paint1_linear_298_6550)"/>
<path d="M32.38 4H15.62C8.34 4 4 8.34 4 15.62V32.38C4 39.66 8.34 44 15.62 44H32.38C39.66 44 44 39.66 44 32.38V15.62C44 8.34 39.66 4 32.38 4ZM28.52 24C30.08 24.54 32.16 25.68 32.16 29.26C32.16 32.34 29.76 34.84 26.8 34.84H25.5V36C25.5 36.82 24.82 37.5 24 37.5C23.18 37.5 22.5 36.82 22.5 36V34.84H21.78C18.5 34.84 15.84 32.06 15.84 28.66C15.84 27.84 16.5 27.16 17.34 27.16C18.16 27.16 18.84 27.84 18.84 28.66C18.84 30.42 20.16 31.84 21.78 31.84H22.5V25.06L19.48 24C17.92 23.46 15.84 22.32 15.84 18.74C15.84 15.66 18.24 13.16 21.2 13.16H22.5V12C22.5 11.18 23.18 10.5 24 10.5C24.82 10.5 25.5 11.18 25.5 12V13.16H26.22C29.5 13.16 32.16 15.94 32.16 19.34C32.16 20.16 31.5 20.84 30.66 20.84C29.84 20.84 29.16 20.16 29.16 19.34C29.16 17.58 27.84 16.16 26.22 16.16H25.5V22.94L28.52 24Z" fill="url(#paint2_linear_298_6550)"/>
<defs>
<linearGradient id="paint0_linear_298_6550" x1="20.6698" y1="16.1599" x2="20.6698" y2="21.8799" gradientUnits="userSpaceOnUse">
<stop stop-color="#88F5C1"/>
<stop offset="1" stop-color="#32D686"/>
</linearGradient>
<linearGradient id="paint1_linear_298_6550" x1="27.33" y1="26.1201" x2="27.33" y2="31.8401" gradientUnits="userSpaceOnUse">
<stop stop-color="#88F5C1"/>
<stop offset="1" stop-color="#32D686"/>
</linearGradient>
<linearGradient id="paint2_linear_298_6550" x1="24" y1="4" x2="24" y2="44" gradientUnits="userSpaceOnUse">
<stop stop-color="#88F5C1"/>
<stop offset="1" stop-color="#32D686"/>
</linearGradient>
</defs>
</svg>
