<svg width="49" height="48" viewBox="0 0 49 48" fill="none" xmlns="http://www.w3.org/2000/svg">
<path d="M32.5 3.93994H16.5C8.5 3.93994 4.5 7.93994 4.5 15.9399V25.9399C4.5 35.9399 8.5 37.9399 16.5 37.9399H17.5C18.06 37.9399 18.78 38.2999 19.1 38.7399L22.1 42.7399C23.42 44.4999 25.58 44.4999 26.9 42.7399L29.9 38.7399C30.28 38.2399 30.88 37.9399 31.5 37.9399H32.5C40.5 37.9399 44.5 33.9399 44.5 25.9399V15.9399C44.5 7.93994 40.5 3.93994 32.5 3.93994ZM17.56 24.3399C18.14 24.9199 18.14 25.8799 17.56 26.4599C17.26 26.7599 16.88 26.8999 16.5 26.8999C16.12 26.8999 15.74 26.7599 15.44 26.4599L11.44 22.4599C10.86 21.8799 10.86 20.9199 11.44 20.3399L15.44 16.3399C16.02 15.7599 16.98 15.7599 17.56 16.3399C18.14 16.9199 18.14 17.8799 17.56 18.4599L14.62 21.3999L17.56 24.3399ZM27.88 17.3199L23.88 26.6599C23.64 27.2199 23.08 27.5599 22.5 27.5599C22.3 27.5599 22.1 27.5199 21.9 27.4399C21.14 27.1199 20.78 26.2399 21.12 25.4599L25.12 16.1199C25.44 15.3599 26.32 14.9999 27.1 15.3399C27.86 15.6799 28.2 16.5599 27.88 17.3199ZM37.56 22.4599L33.56 26.4599C33.26 26.7599 32.88 26.8999 32.5 26.8999C32.12 26.8999 31.74 26.7599 31.44 26.4599C30.86 25.8799 30.86 24.9199 31.44 24.3399L34.38 21.3999L31.44 18.4599C30.86 17.8799 30.86 16.9199 31.44 16.3399C32.02 15.7599 32.98 15.7599 33.56 16.3399L37.56 20.3399C38.14 20.9199 38.14 21.8799 37.56 22.4599Z" fill="url(#paint0_linear_298_6691)"/>
<defs>
<linearGradient id="paint0_linear_298_6691" x1="24.5" y1="3.93994" x2="24.5" y2="44.0599" gradientUnits="userSpaceOnUse">
<stop stop-color="#88F5C1"/>
<stop offset="1" stop-color="#32D686"/>
</linearGradient>
</defs>
</svg>
