<svg width="48" height="48" viewBox="0 0 48 48" fill="none" xmlns="http://www.w3.org/2000/svg">
<path d="M32.38 4H15.62C8.34 4 4 8.34 4 15.62V32.36C4 39.66 8.34 44 15.62 44H32.36C39.64 44 43.98 39.66 43.98 32.38V15.62C44 8.34 39.66 4 32.38 4ZM33.32 22.5L30.08 24.54L30.36 29.34C30.62 32.02 29.7 32.94 27.16 33.24L17.02 34.44C16.8802 34.4591 16.7445 34.47 16.6122 34.4723C16.2371 34.4788 16.1171 34.0429 16.3823 33.7777L19.76 30.4C20.34 29.82 20.34 28.86 19.76 28.28C19.16 27.7 18.22 27.7 17.62 28.28L14.2625 31.6545C13.9975 31.9209 13.561 31.8011 13.5677 31.4255C13.5701 31.2939 13.5811 31.1589 13.6 31.02L14.78 20.88C15.1 18.34 16.02 17.52 18.7 17.68L23.48 17.96L25.54 14.7C26.48 13.22 28.4 13.14 29.8 14.54L33.5 18.24C34.82 19.54 34.74 21.6 33.32 22.5Z" fill="url(#paint0_linear_298_6534)"/>
<defs>
<linearGradient id="paint0_linear_298_6534" x1="23.99" y1="4" x2="23.99" y2="44" gradientUnits="userSpaceOnUse">
<stop stop-color="#88F5C1"/>
<stop offset="1" stop-color="#32D686"/>
</linearGradient>
</defs>
</svg>
