<svg width="455" height="28" viewBox="0 0 455 28" fill="none" xmlns="http://www.w3.org/2000/svg">
<path d="M9.7022 14.3253C13.2646 14.3253 16.9966 14.1868 20.559 14.0484C22.0857 14.0484 23.4428 13.91 24.9696 13.91C31.4158 13.6331 37.862 13.3562 44.3082 13.0794C52.1115 12.8025 59.7452 12.3872 67.5485 12.1103C78.5749 11.5566 89.6013 11.1413 100.628 10.5875C103.172 10.4491 105.717 10.4491 108.261 10.3107C114.708 10.0338 121.154 9.75691 127.6 9.61848C134.046 9.34161 140.493 9.06474 146.939 8.9263C149.483 8.78787 152.028 8.64944 154.572 8.64944C164.751 8.37256 175.099 8.09568 185.277 7.81881C191.553 7.68038 197.83 7.54195 204.276 7.26508C206.821 7.26508 209.196 7.12664 211.74 7.12664C221.579 6.9882 231.588 6.84977 241.427 6.71134C251.266 6.5729 260.935 6.43446 270.774 6.29603C273.318 6.29603 275.863 6.29603 278.577 6.29603C285.023 6.29603 291.3 6.29603 297.746 6.29603C307.755 6.29603 317.594 6.29603 327.602 6.15759C330.826 6.15759 334.049 6.15759 337.272 6.15759C344.057 6.15759 350.843 6.15759 357.628 6.15759C358.137 6.15759 358.816 6.15759 359.325 6.15759C344.057 6.29603 328.62 6.43446 313.353 6.71134C306.907 6.84977 300.63 6.84977 294.184 6.9882C291.47 6.9882 288.586 6.9882 285.872 7.12664C276.542 7.26507 267.381 7.54194 258.051 7.68038C247.364 7.95725 236.677 8.09569 225.99 8.37256C224.124 8.37256 222.427 8.51099 220.561 8.51099C214.794 8.78786 209.196 8.9263 203.428 9.20317C191.893 9.61847 180.357 10.0338 168.822 10.4491C167.126 10.4491 165.429 10.5875 163.733 10.726C158.135 11.0028 152.367 11.4181 146.769 11.695C136.591 12.2488 126.582 12.8025 116.404 13.3562C113.69 13.4947 110.806 13.7715 108.092 13.91C101.646 14.3253 95.1994 14.7406 88.7532 15.2943C80.6106 15.8481 72.2983 16.4018 64.1558 16.9556C52.7901 17.7862 41.2547 18.6168 29.889 19.4474C27.1748 19.5858 24.4606 19.8627 21.5768 20.0011C16.6573 20.4164 11.7378 20.8318 6.81837 21.2471C6.30945 21.2471 5.80055 21.5239 5.80055 22.0777C5.80055 22.493 6.30945 22.9083 6.81837 22.9083C8.68438 22.9083 10.3808 23.0467 12.2468 23.0467C12.0771 23.462 11.9075 23.8773 11.9075 24.2926C11.9075 25.8154 13.4342 27.1998 15.4699 27.1998C29.5498 26.5076 43.46 25.677 57.5399 25.1232C69.7538 24.7079 81.9677 24.1542 94.1816 23.7389C107.583 23.1852 121.154 22.6314 134.555 22.2161C138.796 22.0777 143.037 21.9392 147.278 21.6624C148.465 21.6624 149.653 21.5239 151.01 21.5239C172.724 21.1086 194.437 20.5549 216.151 20.1396C227.686 19.8627 239.391 19.5858 250.926 19.4474C255.167 19.309 259.239 19.309 263.48 19.1705C285.702 18.8937 307.924 18.6168 330.147 18.3399C339.647 18.2015 349.146 18.063 358.646 17.9246C366.789 17.7862 374.931 17.7862 383.074 17.5093C389.859 17.3709 396.475 17.094 403.261 16.9556C406.653 16.8171 410.046 16.8171 413.269 16.6787C420.903 16.2634 428.537 15.8481 436.17 15.4328C435.661 15.9865 435.661 16.8171 435.831 17.3709C436.001 18.063 436.51 18.6168 437.358 18.8937C438.036 19.1705 439.054 19.4474 439.733 19.1705C441.429 18.6168 443.125 18.063 444.652 17.5093C444.652 17.5093 444.652 17.5093 444.482 17.5093C444.652 17.5093 444.652 17.3709 444.822 17.3709C444.991 17.3709 445.161 17.2324 445.161 17.2324H444.991C445.84 16.9556 446.688 16.6787 447.706 16.2634C448.554 15.9865 449.572 15.5712 450.42 15.2943C451.438 14.879 452.286 14.4637 453.304 14.0484C454.321 13.6331 455 12.5256 455 11.5566C455 11.0028 454.83 10.5875 454.491 10.0338C454.152 9.48005 453.304 8.78787 452.455 8.64944C451.607 8.511 450.759 8.37256 449.911 8.37256C449.741 8.37256 449.572 8.37256 449.402 8.37256C448.893 8.37256 448.215 8.37256 447.706 8.51099C446.349 8.64943 445.161 8.78787 443.804 8.78787C442.786 8.78787 441.768 8.9263 440.581 8.9263C437.697 9.06474 434.983 9.20317 432.099 9.48005C431.42 9.48005 430.572 9.61848 429.894 9.61848C430.233 9.34161 430.403 9.06474 430.403 8.78787C430.572 8.511 430.572 8.23413 430.572 7.95726C430.572 7.81882 430.572 7.54195 430.742 7.40351C430.742 7.12664 430.742 6.84977 430.572 6.71134C430.572 6.71134 430.742 6.71134 430.742 6.5729C431.251 6.29603 431.76 6.01916 432.099 5.46541C432.438 5.05011 432.608 4.49637 432.608 3.94263C432.608 3.38888 432.438 2.97358 432.099 2.41984C431.929 2.2814 431.76 2.00453 431.59 1.86609C431.081 1.45079 430.572 1.31235 430.063 1.17392C429.045 0.897046 427.858 0.758606 426.671 0.758606C425.653 0.758606 424.805 0.758606 423.787 0.758606C422.43 0.758606 421.073 0.758606 419.715 0.758606C417.849 0.758606 415.814 0.758606 413.948 0.758606C408.859 0.758606 403.77 0.758606 398.68 0.758606C393.931 0.758606 389.011 0.758606 384.261 0.758606C379.851 0.758606 375.61 0.758606 371.199 0.758606C353.727 0.758606 336.424 0.897048 318.951 1.03548C305.889 1.17392 292.827 1.31235 279.765 1.31235C273.997 1.31235 268.06 1.45078 262.292 1.58922C249.23 1.86609 236.168 2.00452 223.106 2.28139C219.374 2.28139 215.642 2.41984 211.91 2.41984C209.705 2.41984 207.669 2.55827 205.464 2.55827C192.571 2.97358 179.679 3.38889 166.786 3.80419C162.885 3.94263 158.983 4.08106 154.912 4.21949C152.706 4.21949 150.501 4.35793 148.296 4.49637C135.403 5.05011 122.681 5.60385 109.788 6.15759C103.172 6.43446 96.5565 6.71133 89.9406 7.12664C78.5749 7.68038 67.2092 8.23412 56.0132 8.9263C46.1742 9.48004 36.3353 9.89535 26.4963 10.3107C24.9696 10.4491 23.4428 10.4491 21.7464 10.5875C19.2019 10.726 16.6573 10.726 14.1128 10.8644C11.9075 11.0028 9.7022 11.0028 7.32728 11.0028C7.15764 10.5875 6.47909 10.1722 5.97018 10.1722C4.44345 10.3107 3.08635 10.4491 1.55961 10.5875C0.881065 10.5875 0.202516 10.8644 0.0328783 11.5566C-0.136759 12.2488 0.372152 12.9409 1.0507 13.0794C1.72925 13.2178 2.23816 13.3562 2.91671 13.4947C3.59526 13.6331 4.10417 13.6331 4.78272 13.6331C6.47909 14.1869 8.00583 14.1869 9.7022 14.3253ZM406.653 9.75691C408.689 9.75691 410.894 9.75691 412.93 9.75691C413.1 10.1722 413.439 10.4491 413.778 10.726C412.93 10.726 412.082 10.8644 411.403 10.8644C409.876 10.8644 408.35 11.0028 406.823 11.0028C400.038 11.1413 393.422 11.4181 386.636 11.5566C383.583 11.695 380.529 11.8334 377.476 11.8334C372.726 11.8334 367.806 11.9719 363.057 11.9719C352.03 12.1103 341.173 12.2488 330.147 12.3872C308.773 12.6641 287.568 12.9409 266.194 13.2178C250.926 13.3562 235.659 13.7715 220.392 14.1869C197.491 14.7406 174.42 15.1559 151.519 15.7096C146.939 15.8481 142.359 15.9865 137.778 16.2634C124.716 16.8171 111.654 17.2324 98.5921 17.7862C85.8693 18.3399 72.9769 18.7552 60.2541 19.309C59.0666 19.309 57.8792 19.4474 56.6917 19.4474C60.0845 19.1705 63.6468 19.0321 67.0396 18.7552C79.0838 18.063 91.1281 17.2324 103.172 16.5403C107.413 16.2634 111.654 15.9865 115.725 15.7096C117.931 15.5712 120.136 15.4328 122.172 15.4328C134.725 14.879 147.278 14.1869 159.831 13.6331C162.206 13.4947 164.751 13.3562 167.126 13.2178C170.688 13.0794 174.25 12.9409 177.643 12.9409C190.536 12.5256 203.428 12.1103 216.32 11.695C219.204 11.5566 222.088 11.5566 224.802 11.4181C225.481 11.4181 226.329 11.4181 227.008 11.4181C229.043 11.4181 231.079 11.4181 232.945 11.2797C245.837 11.0028 258.899 10.8644 271.792 10.5875C277.729 10.4491 283.666 10.3107 289.604 10.3107C308.773 10.1722 328.111 10.0338 347.28 9.89535C367.467 9.89535 387.145 9.89535 406.653 9.75691Z" fill="url(#paint0_linear_239_9115)"/>
<defs>
<linearGradient id="paint0_linear_239_9115" x1="227.5" y1="0.758606" x2="227.5" y2="27.1998" gradientUnits="userSpaceOnUse">
<stop stop-color="#88F5C1"/>
<stop offset="1" stop-color="#32D686"/>
</linearGradient>
</defs>
</svg>
