<svg width="49" height="48" viewBox="0 0 49 48" fill="none" xmlns="http://www.w3.org/2000/svg">
<path d="M32.88 4H16.12C8.84 4 4.5 8.34 4.5 15.62V32.36C4.5 39.66 8.84 44 16.12 44H32.86C40.14 44 44.48 39.66 44.48 32.38V15.62C44.5 8.34 40.16 4 32.88 4ZM30.08 33.2C29.78 33.58 29.34 33.78 28.9 33.78C28.58 33.78 28.26 33.68 27.98 33.46C25.86 31.82 23.12 31.82 21 33.46C20.34 33.96 19.4 33.84 18.9 33.2C18.4 32.54 18.52 31.6 19.16 31.1C22.34 28.64 26.62 28.64 29.8 31.1C30.48 31.6 30.6 32.54 30.08 33.2ZM34.5 27.02C34.2 27.4 33.76 27.6 33.32 27.6C33 27.6 32.68 27.5 32.4 27.28C27.6 23.58 21.42 23.58 16.62 27.28C15.96 27.8 15.02 27.68 14.5 27.02C13.98 26.36 14.12 25.42 14.76 24.92C20.66 20.36 28.3 20.36 34.2 24.92C34.88 25.42 35 26.36 34.5 27.02ZM37.68 20.84C37.38 21.22 36.94 21.42 36.5 21.42C36.18 21.42 35.86 21.32 35.58 21.1C28.84 15.9 20.14 15.9 13.42 21.1C12.76 21.6 11.82 21.48 11.32 20.84C10.82 20.18 10.94 19.24 11.58 18.74C19.42 12.68 29.56 12.68 37.42 18.74C38.08 19.24 38.2 20.18 37.68 20.84Z" fill="url(#paint0_linear_298_6603)"/>
<defs>
<linearGradient id="paint0_linear_298_6603" x1="24.49" y1="4" x2="24.49" y2="44" gradientUnits="userSpaceOnUse">
<stop stop-color="#88F5C1"/>
<stop offset="1" stop-color="#32D686"/>
</linearGradient>
</defs>
</svg>
